<svg xmlns="http://www.w3.org/2000/svg" xmlns:xlink="http://www.w3.org/1999/xlink" width="2000" zoomAndPan="magnify" viewBox="0 515 1500 425" height="2000" preserveAspectRatio="xMidYMid meet" version="1.0"><defs><g/><clipPath id="3f795d9d5b"><rect x="0" width="1496" y="0" height="559"/></clipPath></defs><g transform="matrix(1, 0, 0, 1, 4, 468)"><g clip-path="url(#3f795d9d5b)"><g fill="#000000" fill-opacity="1"><g transform="translate(0.598614, 440.925939)"><g><path d="M 22.078125 -127.78125 C 22.078125 -166.351562 31.210938 -197.367188 49.484375 -220.828125 C 67.765625 -244.296875 91.695312 -256.03125 121.28125 -256.03125 C 150.707031 -256.03125 174.019531 -245.960938 191.21875 -225.828125 L 191.21875 -356.875 L 234.203125 -356.875 L 234.203125 0 L 194.703125 0 L 192.609375 -26.953125 C 175.410156 -5.890625 151.476562 4.640625 120.8125 4.640625 C 91.695312 4.640625 67.960938 -7.28125 49.609375 -31.125 C 31.253906 -54.976562 22.078125 -86.113281 22.078125 -124.53125 Z M 65.046875 -122.90625 C 65.046875 -94.40625 70.929688 -72.097656 82.703125 -55.984375 C 94.484375 -39.878906 110.75 -31.828125 131.5 -31.828125 C 158.757812 -31.828125 178.664062 -44.066406 191.21875 -68.546875 L 191.21875 -184.015625 C 178.363281 -207.710938 158.613281 -219.5625 131.96875 -219.5625 C 110.90625 -219.5625 94.484375 -211.425781 82.703125 -195.15625 C 70.929688 -178.894531 65.046875 -154.8125 65.046875 -122.90625 Z M 65.046875 -122.90625 "/></g></g></g><g fill="#000000" fill-opacity="1"><g transform="translate(268.944192, 440.925939)"><g><path d="M 136.84375 4.640625 C 102.769531 4.640625 75.046875 -6.546875 53.671875 -28.921875 C 32.296875 -51.304688 21.609375 -81.238281 21.609375 -118.71875 L 21.609375 -126.625 C 21.609375 -151.5625 26.367188 -173.828125 35.890625 -193.421875 C 45.421875 -213.015625 58.742188 -228.347656 75.859375 -239.421875 C 92.972656 -250.492188 111.519531 -256.03125 131.5 -256.03125 C 164.1875 -256.03125 189.585938 -245.265625 207.703125 -223.734375 C 225.828125 -202.210938 234.890625 -171.390625 234.890625 -131.265625 L 234.890625 -113.375 L 64.59375 -113.375 C 65.207031 -88.59375 72.445312 -68.570312 86.3125 -53.3125 C 100.175781 -38.0625 117.796875 -30.4375 139.171875 -30.4375 C 154.347656 -30.4375 167.203125 -33.53125 177.734375 -39.71875 C 188.265625 -45.914062 197.484375 -54.128906 205.390625 -64.359375 L 231.640625 -43.90625 C 210.578125 -11.539062 178.976562 4.640625 136.84375 4.640625 Z M 131.5 -220.71875 C 114.15625 -220.71875 99.597656 -214.40625 87.828125 -201.78125 C 76.054688 -189.15625 68.773438 -171.460938 65.984375 -148.703125 L 191.90625 -148.703125 L 191.90625 -151.953125 C 190.664062 -173.785156 184.78125 -190.703125 174.25 -202.703125 C 163.71875 -214.710938 149.46875 -220.71875 131.5 -220.71875 Z M 131.5 -220.71875 "/></g></g></g><g fill="#000000" fill-opacity="1"><g transform="translate(521.029046, 440.925939)"><g/></g></g><g fill="#000000" fill-opacity="1"><g transform="translate(638.822323, 440.925939)"><g/></g></g><g fill="#000000" fill-opacity="1"><g transform="translate(756.629898, 440.925939)"><g><path d="M 79.234375 0 L 36.25 0 L 36.25 -356.875 L 79.234375 -356.875 Z M 79.234375 0 "/></g></g></g><g fill="#000000" fill-opacity="1"><g transform="translate(872.099838, 440.925939)"><g><path d="M 79.234375 0 L 36.25 0 L 36.25 -251.390625 L 79.234375 -251.390625 Z M 32.765625 -318.078125 C 32.765625 -325.046875 34.890625 -330.929688 39.140625 -335.734375 C 43.398438 -340.535156 49.710938 -342.9375 58.078125 -342.9375 C 66.441406 -342.9375 72.789062 -340.535156 77.125 -335.734375 C 81.46875 -330.929688 83.640625 -325.039062 83.640625 -318.0625 C 83.640625 -311.09375 81.46875 -305.285156 77.125 -300.640625 C 72.789062 -295.992188 66.441406 -293.671875 58.078125 -293.671875 C 49.710938 -293.671875 43.398438 -295.992188 39.140625 -300.640625 C 34.890625 -305.285156 32.765625 -311.097656 32.765625 -318.078125 Z M 32.765625 -318.078125 "/></g></g></g><g fill="#000000" fill-opacity="1"><g transform="translate(987.569778, 440.925939)"><g><path d="M 73.1875 -251.390625 L 74.578125 -219.796875 C 93.785156 -243.953125 118.878906 -256.03125 149.859375 -256.03125 C 202.984375 -256.03125 229.78125 -226.0625 230.25 -166.125 L 230.25 0 L 187.265625 0 L 187.265625 -166.359375 C 187.109375 -184.472656 182.960938 -197.867188 174.828125 -206.546875 C 166.703125 -215.222656 154.039062 -219.5625 136.84375 -219.5625 C 122.90625 -219.5625 110.671875 -215.84375 100.140625 -208.40625 C 89.609375 -200.96875 81.398438 -191.207031 75.515625 -179.125 L 75.515625 0 L 32.53125 0 L 32.53125 -251.390625 Z M 73.1875 -251.390625 "/></g></g></g><g fill="#000000" fill-opacity="1"><g transform="translate(1250.106973, 440.925939)"><g><path d="M 102.6875 -116.40625 L 75.734375 -88.28125 L 75.734375 0 L 32.765625 0 L 32.765625 -356.875 L 75.734375 -356.875 L 75.734375 -141.03125 L 98.75 -168.671875 L 177.046875 -251.390625 L 229.3125 -251.390625 L 131.5 -146.375 L 240.703125 0 L 190.28125 0 Z M 102.6875 -116.40625 "/></g></g></g></g></g><path fill="#000000" d="M 600.691406 713.964844 C 582.875 715.558594 570.886719 726.722656 568.65625 743.800781 C 565.707031 766.386719 575.683594 783.019531 594.785156 787.363281 C 600.3125 788.621094 601.753906 788.675781 625.300781 788.558594 L 643.042969 788.46875 L 643.042969 772.265625 L 623.554688 772.226562 C 604.292969 772.1875 604.046875 772.183594 602.441406 771.929688 C 591.332031 770.160156 585.300781 763.824219 584.601562 753.1875 C 583.878906 742.148438 588.480469 734.648438 597.921875 731.480469 C 602.230469 730.035156 602.433594 730.023438 624.632812 730.023438 L 643.042969 730.023438 L 643.042969 713.777344 L 622.710938 713.796875 C 607.5 713.808594 601.953125 713.851562 600.691406 713.964844 M 653.523438 721.898438 L 653.523438 730.015625 L 672.949219 730.058594 C 687.238281 730.089844 692.648438 730.140625 693.394531 730.246094 C 705.316406 731.941406 711.691406 738.777344 712.039062 750.242188 C 712.390625 761.671875 707.039062 769.023438 696.589844 771.476562 C 693.402344 772.222656 694.523438 772.1875 673.070312 772.226562 L 653.523438 772.265625 L 653.523438 788.5 L 672.410156 788.507812 C 695.214844 788.515625 693.621094 788.527344 695.390625 788.375 C 717.105469 786.5 729.566406 771.378906 728.359375 748.367188 C 727.300781 728.199219 715.5 715.75 695.75 713.957031 C 694.160156 713.8125 690.324219 713.78125 673.671875 713.78125 L 653.523438 713.777344 L 653.523438 721.898438 M 555.996094 744.808594 C 551.226562 746.175781 549.664062 752.324219 553.199219 755.800781 C 556.503906 759.058594 561.828125 758.109375 563.839844 753.90625 C 566.253906 748.867188 561.414062 743.253906 555.996094 744.808594 M 736.835938 744.824219 C 731.105469 746.652344 730.484375 754.398438 735.855469 757.039062 C 741.53125 759.828125 747.414062 753.902344 744.636719 748.191406 C 743.277344 745.402344 739.773438 743.890625 736.835938 744.824219 M 620.753906 751.019531 L 620.753906 754.929688 L 646.175781 754.929688 L 646.175781 747.109375 L 620.753906 747.109375 L 620.753906 751.019531 M 650.269531 751.019531 L 650.269531 754.929688 L 675.691406 754.929688 L 675.691406 747.109375 L 650.269531 747.109375 L 650.269531 751.019531 " fill-opacity="1" fill-rule="evenodd"/></svg>