<svg xmlns="http://www.w3.org/2000/svg" xmlns:xlink="http://www.w3.org/1999/xlink" width="2000" zoomAndPan="magnify" viewBox="0 0 1500 1499.999933" height="2000" preserveAspectRatio="xMidYMid meet" version="1.0"><defs><g/><clipPath id="dd383b914c"><rect x="0" width="1285" y="0" height="819"/></clipPath></defs><g transform="matrix(1, 0, 0, 1, 113, 356)"><g clip-path="url(#dd383b914c)"><g fill="#000000" fill-opacity="1"><g transform="translate(0.587626, 646.461225)"><g><path d="M 604.1875 0 L 380.234375 0 C 318.367188 0 265.34375 -24.882812 221.15625 -74.65625 C 176.976562 -124.425781 154.890625 -184.425781 154.890625 -254.65625 C 154.890625 -324.882812 176.976562 -384.882812 221.15625 -434.65625 C 265.34375 -484.425781 318.367188 -509.3125 380.234375 -509.3125 L 604.1875 -509.3125 L 604.1875 -450.703125 L 380.234375 -450.703125 C 334.648438 -450.703125 295.695312 -431.515625 263.375 -393.140625 C 231.050781 -354.773438 214.890625 -308.613281 214.890625 -254.65625 C 214.890625 -200.695312 231.050781 -154.53125 263.375 -116.15625 C 295.695312 -77.789062 334.648438 -58.609375 380.234375 -58.609375 L 604.1875 -58.609375 Z M 46.75 -226.046875 C 38.84375 -233.953125 34.890625 -243.488281 34.890625 -254.65625 C 34.890625 -265.820312 38.84375 -275.359375 46.75 -283.265625 C 54.65625 -291.171875 64.1875 -295.125 75.34375 -295.125 C 86.507812 -295.125 96.046875 -291.171875 103.953125 -283.265625 C 111.859375 -275.359375 115.8125 -265.820312 115.8125 -254.65625 C 115.8125 -243.488281 111.859375 -233.953125 103.953125 -226.046875 C 96.046875 -218.140625 86.507812 -214.1875 75.34375 -214.1875 C 64.1875 -214.1875 54.65625 -218.140625 46.75 -226.046875 Z M 46.75 -226.046875 "/></g></g></g><g fill="#000000" fill-opacity="1"><g transform="translate(639.654023, 646.461225)"><g><path d="M 34.890625 -509.3125 L 258.84375 -509.3125 C 320.707031 -509.3125 373.726562 -484.425781 417.90625 -434.65625 C 462.09375 -384.882812 484.1875 -324.882812 484.1875 -254.65625 C 484.1875 -184.425781 462.09375 -124.425781 417.90625 -74.65625 C 373.726562 -24.882812 320.707031 0 258.84375 0 L 34.890625 0 L 34.890625 -58.609375 L 258.84375 -58.609375 C 304.425781 -58.609375 343.378906 -77.789062 375.703125 -116.15625 C 408.023438 -154.53125 424.1875 -200.695312 424.1875 -254.65625 C 424.1875 -308.613281 408.023438 -354.773438 375.703125 -393.140625 C 343.378906 -431.515625 304.425781 -450.703125 258.84375 -450.703125 L 34.890625 -450.703125 Z M 535.125 -226.046875 C 527.21875 -233.953125 523.265625 -243.488281 523.265625 -254.65625 C 523.265625 -265.820312 527.21875 -275.359375 535.125 -283.265625 C 543.03125 -291.171875 552.5625 -295.125 563.71875 -295.125 C 574.882812 -295.125 584.421875 -291.171875 592.328125 -283.265625 C 600.234375 -275.359375 604.1875 -265.820312 604.1875 -254.65625 C 604.1875 -243.488281 600.234375 -233.953125 592.328125 -226.046875 C 584.421875 -218.140625 574.882812 -214.1875 563.71875 -214.1875 C 552.5625 -214.1875 543.03125 -218.140625 535.125 -226.046875 Z M 535.125 -226.046875 "/></g></g></g></g></g><g fill="#000000" fill-opacity="1"><g transform="translate(557.510717, 970.072396)"><g><path d="M 178.859375 -184.984375 L 12.609375 -184.984375 L 12.609375 -236.421875 L 178.859375 -236.421875 Z M 178.859375 -184.984375 "/></g></g><g transform="translate(749.994181, 970.072396)"><g><path d="M 178.859375 -184.984375 L 12.609375 -184.984375 L 12.609375 -236.421875 L 178.859375 -236.421875 Z M 178.859375 -184.984375 "/></g></g></g></svg>